<?xml version="1.0" encoding="UTF-8" standalone="no"?>
<!DOCTYPE svg PUBLIC "-//W3C//DTD SVG 1.1//EN" "http://www.w3.org/Graphics/SVG/1.1/DTD/svg11.dtd">
<!-- Created with Vectornator (http://vectornator.io/) -->
<svg height="100%" stroke-miterlimit="10" style="fill-rule:nonzero;clip-rule:evenodd;stroke-linecap:round;stroke-linejoin:round;" version="1.1" viewBox="0 0 1500 500" width="100%" xml:space="preserve" xmlns="http://www.w3.org/2000/svg" xmlns:vectornator="http://vectornator.io" xmlns:xlink="http://www.w3.org/1999/xlink">
<defs/>
<g id="Layer-1" vectornator:layerName="Layer 1">
<path d="M420.627 12.237C423.627 13.637 425.527 16.537 427.927 18.837C431.827 22.237 434.728 26.737 438.528 30.237C443.228 34.737 446.228 40.437 450.128 45.537C456.928 55.837 462.928 66.837 466.028 78.837C469.228 87.037 469.728 95.937 469.528 104.737C469.728 112.737 467.528 120.637 463.927 127.837C457.728 138.737 446.528 146.037 434.827 149.937C420.227 153.437 404.127 154.037 390.027 147.837C384.926 145.037 379.127 143.137 375.027 138.737C365.527 130.937 360.027 118.237 361.827 105.937C364.627 84.037 377.727 65.237 391.727 49.037C393.027 51.437 391.926 54.237 392.827 56.737C394.027 62.037 395.927 67.637 399.927 71.437C404.827 66.937 410.028 62.437 414.228 57.237C418.028 51.637 421.127 45.437 422.427 38.837C422.728 30.437 423.528 21.637 420.327 13.637L420.627 12.237Z" fill="#df4723" fill-rule="evenodd" opacity="1" stroke="#df4723" stroke-linecap="butt" stroke-linejoin="miter" stroke-width="0.0938"/>
<path d="M579.027 176.937C583.226 175.837 587.726 176.637 591.926 175.737C600.726 174.637 609.426 176.037 618.126 176.337C624.226 176.237 630.126 178.037 636.126 179.237C658.426 184.637 679.526 196.537 694.826 213.937C697.526 218.437 701.626 221.737 704.225 226.337C710.725 236.637 715.026 248.137 718.725 259.737C721.026 268.237 722.225 277.037 723.326 285.737C723.826 305.037 723.526 324.437 723.626 343.737C723.526 382.237 723.726 420.737 723.526 459.237C700.126 458.937 676.826 459.137 653.526 459.037C653.326 458.937 652.826 458.537 652.626 458.337C652.526 404.438 652.626 350.537 652.626 296.737C652.726 290.137 651.526 283.737 650.126 277.437C647.626 271.037 644.426 264.937 640.026 259.737C637.425 256.637 633.826 254.637 630.925 251.937C626.425 248.937 621.125 247.537 616.026 246.137C613.326 245.937 610.626 246.137 608.126 245.237C597.426 244.537 586.526 245.437 576.526 249.537C569.225 253.037 562.425 257.837 557.626 264.537C549.726 273.937 547.126 286.737 547.326 298.737C547.326 352.137 547.426 405.637 547.326 459.037C523.725 459.237 500.126 458.937 476.526 459.237C476.126 407.737 476.526 356.137 476.326 304.637C476.426 298.036 476.226 291.437 476.726 284.836C478.026 281.536 477.125 277.937 478.125 274.736C479.925 262.536 484.525 250.936 489.625 239.836C494.625 230.136 500.625 220.836 508.425 213.136C514.526 206.936 520.825 200.436 528.526 196.136C543.427 185.737 561.027 179.437 579.027 176.937Z" fill="#ffffff" fill-rule="evenodd" opacity="1" stroke="#ffffff" stroke-linecap="butt" stroke-linejoin="miter" stroke-width="0.0938"/>
<path d="M1417.03 176.337C1425.73 176.137 1434.33 174.437 1443.03 175.837C1447.73 176.437 1452.53 176.337 1457.23 176.537C1458.13 185.237 1457.43 194.037 1457.63 202.737C1457.63 214.437 1457.63 226.037 1457.63 237.737C1457.63 239.937 1457.93 242.237 1457.03 244.337C1454.72 242.638 1451.63 243.237 1449.03 242.537C1438.42 241.638 1427.53 242.138 1417.53 246.138C1405.63 250.238 1395.22 258.938 1389.42 270.238C1387.72 272.338 1387.72 275.338 1385.82 277.338C1382.72 288.538 1382.52 300.238 1382.72 311.738C1382.62 360.938 1383.02 410.038 1382.52 459.238C1359.22 458.938 1335.82 459.238 1312.42 459.038C1312.22 458.838 1311.92 458.438 1311.72 458.238C1311.72 404.738 1311.72 351.238 1311.72 297.738C1311.42 291.038 1312.92 284.538 1312.82 277.938C1314.42 274.738 1314.02 271.038 1315.02 267.738C1320.02 242.438 1333.32 218.538 1353.52 202.238C1357.42 197.838 1363.02 195.738 1367.62 192.238C1382.53 183.137 1399.83 178.737 1417.03 176.337Z" fill="#ffffff" fill-rule="evenodd" opacity="1" stroke="#ffffff" stroke-linecap="butt" stroke-linejoin="miter" stroke-width="0.0938"/>
<path d="M380.527 182.237C404.127 182.637 427.727 182.137 451.327 182.437C451.327 273.937 451.227 365.336 451.327 456.737C451.327 457.637 451.327 459.437 449.927 459.137C426.827 459.137 403.827 459.137 380.728 459.137C380.127 444.037 380.627 428.837 380.427 413.737C380.527 336.637 380.427 259.437 380.527 182.237Z" fill="#ffffff" fill-rule="evenodd" opacity="1" stroke="#ffffff" stroke-linecap="butt" stroke-linejoin="miter" stroke-width="0.0938"/>
<path d="M1121.03 367.837C1127.03 365.537 1132.83 362.537 1138.93 360.438C1147.73 357.038 1156.33 352.938 1165.13 349.538C1183.33 341.139 1202.13 334.139 1220.53 326.238C1224.92 323.838 1229.92 322.738 1234.22 320.138C1239.12 318.238 1244.03 316.537 1248.83 314.337C1253.03 311.837 1257.83 310.837 1262.13 308.638C1267.83 306.337 1273.33 303.738 1279.13 301.638C1285.03 298.337 1291.63 296.738 1297.53 293.537C1299.13 292.437 1301.72 292.737 1302.72 290.837C1301.03 288.438 1301.92 285.438 1301.03 282.837C1299.72 278.138 1298.42 273.537 1297.33 268.938C1292.83 255.038 1286.33 241.738 1277.53 230.138C1266.83 214.638 1252.13 202.138 1235.83 192.938C1225.13 186.438 1213.13 182.738 1201.13 179.538C1193.73 178.638 1186.63 176.038 1179.13 176.138C1172.33 175.238 1165.33 174.838 1158.63 176.038C1146.73 176.238 1135.33 179.138 1124.03 182.438C1104.33 189.338 1085.63 199.838 1070.53 214.338C1066.03 218.538 1062.33 223.438 1058.03 227.738C1051.33 236.338 1045.22 245.438 1040.63 255.238C1034.13 269.938 1027.93 285.338 1027.23 301.638C1025.03 309.438 1025.73 317.638 1025.63 325.638C1025.43 330.738 1026.23 335.738 1027.23 340.638C1026.93 345.837 1028.93 350.638 1029.63 355.638C1031.33 366.238 1036.03 376.037 1040.33 385.837C1052.13 410.037 1070.72 431.037 1094.03 444.737C1109.33 454.137 1126.33 460.837 1144.13 463.337C1158.63 465.638 1173.53 466.037 1188.13 464.138C1193.13 464.537 1197.93 462.337 1202.93 462.037C1224.23 457.037 1245.13 448.037 1261.23 432.937C1266.03 429.137 1270.53 424.637 1274.33 419.836C1280.73 413.336 1285.33 405.437 1289.93 397.637C1294.33 389.336 1297.93 380.536 1300.53 371.437C1299.13 370.836 1297.53 371.037 1296.13 371.037C1272.73 371.138 1249.43 370.937 1226.03 371.037C1223.83 371.037 1223.83 374.037 1222.43 375.237C1218.43 381.037 1213.33 385.937 1207.93 390.537C1200.13 396.138 1190.93 399.138 1181.83 401.837C1179.43 402.138 1177.13 402.037 1174.93 402.938C1169.33 403.337 1163.63 403.138 1157.93 403.038C1151.63 401.838 1145.33 400.438 1139.23 398.438C1129.83 393.638 1120.63 388.138 1113.53 380.337C1111.73 378.138 1108.83 376.438 1108.23 373.537C1109.83 372.837 1111.33 371.737 1113.13 371.437C1116.03 370.937 1118.23 368.637 1121.03 367.837ZM1092.23 317.237C1090.83 313.737 1092.13 309.637 1091.93 305.937C1093.53 300.836 1094.03 295.437 1095.93 290.336C1100.73 279.036 1106.63 267.937 1115.23 259.036C1119.23 255.736 1122.63 251.736 1127.23 249.236C1130.63 247.436 1133.93 245.436 1137.43 243.836C1143.93 241.937 1150.23 238.937 1157.03 238.937C1163.23 237.437 1169.63 238.237 1175.93 238.336C1192.43 240.637 1209.03 247.736 1219.73 260.836C1220.83 263.437 1217.13 263.637 1215.63 264.637C1209.13 268.237 1201.83 270.036 1195.33 273.737C1192.43 274.237 1189.93 276.037 1187.13 276.937C1166.43 285.937 1145.33 293.836 1124.83 303.237C1113.83 307.537 1102.93 312.137 1092.23 317.237Z" fill="#ffffff" fill-rule="evenodd" opacity="1" stroke="#ffffff" stroke-linecap="butt" stroke-linejoin="miter" stroke-width="0.0938"/>
<path d="M1017.73 60.037C995.827 59.837 973.926 60.037 952.027 59.937C950.426 60.137 948.527 59.437 947.226 60.637C947.426 107.637 947.226 154.737 947.327 201.737C947.226 203.437 947.627 205.137 946.927 206.737C944.927 206.437 943.927 204.537 942.427 203.437C932.327 194.737 921.028 187.337 908.427 183.037C899.927 179.737 891.028 178.037 882.028 176.437C871.828 176.237 861.528 175.937 851.227 176.537C850.127 176.837 849.127 177.137 848.028 177.237C825.128 180.437 803.727 191.137 786.128 205.837C776.328 215.037 766.528 224.637 759.628 236.237C751.528 247.737 746.328 260.937 741.328 273.937C739.028 282.137 736.727 290.237 735.727 298.637C733.827 311.537 734.627 324.737 734.827 337.737C735.327 341.137 736.427 344.337 736.527 347.737C738.327 358.737 741.527 369.537 745.926 379.837C749.626 389.737 755.626 398.737 761.126 407.737C765.026 412.737 768.826 417.937 773.526 422.337C780.526 429.237 787.425 436.737 796.225 441.537C806.625 449.437 818.925 454.138 830.925 458.737C835.325 459.537 839.425 462.037 843.925 462.137C847.725 462.437 851.225 464.237 855.026 464.036C857.026 463.836 858.826 465.236 860.925 465.036C870.625 465.336 880.425 465.336 890.125 465.036C891.725 465.036 893.325 464.336 895.025 464.236C901.724 464.336 907.924 461.736 914.424 460.836C922.924 457.736 932.025 455.736 939.924 451.137C951.624 445.737 962.224 438.137 971.724 429.536C983.724 419.137 993.424 406.137 1000.62 391.936C1003.72 385.636 1007.22 379.536 1009.22 372.736C1013.02 363.336 1014.72 353.336 1016.02 343.436C1018.22 334.736 1017.52 325.636 1017.72 316.636C1017.73 231.137 1017.73 145.637 1017.73 60.037ZM946.627 330.837C946.027 341.438 942.027 351.537 937.327 361.037C929.427 375.937 916.127 387.337 901.027 394.537C898.726 395.737 895.726 395.638 894.127 397.837C891.327 397.837 888.527 397.938 885.827 398.938C877.226 399.138 868.327 399.938 859.927 397.538C856.327 395.838 852.327 395.139 848.727 393.238C844.227 390.738 839.127 389.038 835.427 385.238C828.427 380.338 823.028 373.638 818.127 366.738C814.227 360.038 810.327 353.138 808.527 345.538C806.527 341.538 806.726 337.038 805.627 332.838C805.327 322.139 804.727 311.139 807.227 300.738C808.328 297.438 809.028 293.938 810.227 290.638C813.127 285.337 814.927 279.438 818.727 274.638C820.727 270.438 824.227 267.337 827.028 263.738C834.528 255.138 844.828 249.638 855.227 245.338C859.127 244.439 862.927 242.439 867.028 242.439C875.328 240.338 883.927 242.039 892.128 243.539C902.928 247.439 913.628 252.839 922.028 260.839C925.128 263.739 927.427 267.339 930.528 270.239C943.327 287.437 949.226 309.537 946.627 330.837Z" fill="#ffffff" fill-rule="evenodd" opacity="1" stroke="#ffffff" stroke-linecap="butt" stroke-linejoin="miter" stroke-width="0.0938"/>
<path d="M351.472 64.8611C329.573 64.6611 307.672 64.8611 285.773 64.7611C284.172 64.9611 282.273 64.2611 280.972 65.4611C281.172 112.461 280.972 159.561 281.073 206.561C280.972 208.261 281.373 209.961 280.673 211.561C278.673 211.261 277.673 209.361 276.173 208.261C266.073 199.561 254.774 192.161 242.173 187.861C233.673 184.561 224.774 182.861 215.774 181.261C205.574 181.061 195.274 180.761 184.973 181.361C183.873 181.661 182.873 181.961 181.774 182.061C158.874 185.261 137.473 195.961 119.874 210.661C110.074 219.861 100.274 229.461 93.3738 241.061C85.2738 252.561 80.0738 265.761 75.0738 278.761C72.7738 286.961 70.4728 295.061 69.4728 303.461C67.5728 316.361 68.3728 329.561 68.5728 342.561C69.0728 345.961 70.1728 349.161 70.2728 352.561C72.0728 363.561 75.2728 374.361 79.6718 384.661C83.3718 394.561 89.3718 403.561 94.8718 412.561C98.7718 417.561 102.572 422.761 107.272 427.161C114.272 434.061 121.171 441.561 129.971 446.361C140.371 454.261 152.671 458.962 164.671 463.561C169.071 464.361 173.171 466.861 177.671 466.961C181.471 467.261 184.971 469.061 188.772 468.86C190.772 468.66 192.572 470.06 194.671 469.86C204.371 470.16 214.171 470.16 223.871 469.86C225.471 469.86 227.071 469.16 228.771 469.06C235.47 469.16 241.67 466.56 248.17 465.66C256.67 462.56 265.771 460.56 273.67 455.961C285.37 450.561 295.97 442.961 305.47 434.36C317.47 423.961 327.17 410.961 334.37 396.76C337.47 390.46 340.97 384.36 342.97 377.56C346.771 368.16 348.47 358.16 349.771 348.26C351.97 339.56 351.271 330.46 351.47 321.46C351.472 235.961 351.472 150.461 351.472 64.8611ZM280.373 335.661C279.773 346.262 275.773 356.361 271.073 365.861C263.173 380.761 249.873 392.161 234.773 399.361C232.472 400.561 229.472 400.462 227.873 402.661C225.073 402.661 222.273 402.762 219.573 403.762C210.972 403.962 202.073 404.762 193.673 402.362C190.073 400.662 186.073 399.963 182.473 398.062C177.973 395.562 172.873 393.862 169.173 390.062C162.173 385.162 156.774 378.462 151.873 371.562C147.973 364.862 144.073 357.962 142.273 350.362C140.273 346.362 140.472 341.862 139.373 337.662C139.073 326.963 138.473 315.963 140.973 305.562C142.074 302.262 142.774 298.762 143.973 295.462C146.873 290.161 148.673 284.262 152.473 279.462C154.473 275.262 157.973 272.161 160.774 268.562C168.274 259.962 178.574 254.462 188.973 250.162C192.873 249.263 196.673 247.263 200.774 247.263C209.074 245.162 217.673 246.863 225.874 248.363C236.674 252.263 247.374 257.663 255.774 265.663C258.874 268.563 261.173 272.163 264.274 275.063C277.073 292.261 282.972 314.361 280.373 335.661Z" fill="#ffffff" fill-rule="evenodd" opacity="1" stroke="#ffffff" stroke-linecap="butt" stroke-linejoin="miter" stroke-width="0.0938"/>
</g>
</svg>
