<?xml version="1.0" encoding="UTF-8" standalone="no"?>
<!DOCTYPE svg PUBLIC "-//W3C//DTD SVG 1.1//EN" "http://www.w3.org/Graphics/SVG/1.1/DTD/svg11.dtd">
<!-- Created with Vectornator (http://vectornator.io/) -->
<svg height="100%" stroke-miterlimit="10" style="fill-rule:nonzero;clip-rule:evenodd;stroke-linecap:round;stroke-linejoin:round;" version="1.1" viewBox="0 0 623.62 147.54" width="100%" xml:space="preserve" xmlns="http://www.w3.org/2000/svg" xmlns:vectornator="http://vectornator.io" xmlns:xlink="http://www.w3.org/1999/xlink">
<defs>
<linearGradient gradientTransform="matrix(28 0 0 -32.72 9215.73 16838.1)" gradientUnits="userSpaceOnUse" id="LinearGradient" x1="-328.17" x2="-325.66" y1="509.46" y2="514.31">
<stop offset="0" stop-color="#ff7854"/>
<stop offset="1" stop-color="#fd267d"/>
</linearGradient>
</defs>
<g id="Untitled" vectornator:layerName="Untitled">
<path d="M37.88 59.61C66.29 50.6 70.79 24.44 67.19 1C67.19 1 67.19-0.35 68.09 0.1C95.59 13.62 126.26 42 126.26 85.77C126.26 118.23 100.56 147.54 63.13 147.54C22.55 147.54 0 119.13 0 85.32C0 65 13.53 44.73 29.31 35.71C29.31 35.71 30.66 35.71 30.66 36.62C30.66 41.13 32.47 52.4 37.43 59.16L37.88 59.61Z" fill="url(#LinearGradient)" fill-rule="evenodd" opacity="1" stroke="none"/>
<path d="M252.233 1.81514C253.192 2.26254 253.799 3.18928 254.566 3.92428C255.812 5.01081 256.739 6.44886 257.954 7.56734C259.455 9.00539 260.414 10.8269 261.66 12.4567C263.834 15.7482 265.751 19.2635 266.742 23.0983C267.764 25.7187 267.924 28.5629 267.86 31.375C267.924 33.9316 267.221 36.4562 266.07 38.757C264.089 42.2403 260.51 44.5731 256.771 45.8195C252.105 46.9379 246.96 47.1297 242.454 45.1484C240.824 44.2536 238.971 43.6464 237.661 42.2403C234.625 39.7477 232.867 35.6892 233.442 31.7585C234.337 24.76 238.524 18.7522 242.997 13.5752C243.413 14.3422 243.061 15.2369 243.349 16.0359C243.732 17.7296 244.34 19.5191 245.618 20.7335C247.184 19.2954 248.846 17.8574 250.188 16.1956C251.402 14.4061 252.393 12.4248 252.808 10.3156C252.904 7.63125 253.16 4.81907 252.137 2.26254L252.233 1.81514Z" fill="#0e1117" fill-rule="evenodd" opacity="0" stroke="#df4723" stroke-linecap="butt" stroke-linejoin="miter" stroke-width="0.0938"/>
<path d="M302.852 54.4478C304.194 54.0962 305.632 54.3519 306.974 54.0643C309.787 53.7127 312.567 54.1601 315.347 54.256C317.296 54.2241 319.182 54.7993 321.099 55.1828C328.226 56.9084 334.968 60.7113 339.858 66.2717C340.721 67.7098 342.031 68.7643 342.861 70.2343C344.939 73.5259 346.313 77.2009 347.495 80.9079C348.23 83.6242 348.614 86.4364 348.965 89.2166C349.125 95.3842 349.029 101.584 349.061 107.751C349.029 120.055 349.093 132.358 349.029 144.661C341.551 144.566 334.106 144.629 326.66 144.597C326.596 144.566 326.436 144.438 326.372 144.374C326.34 127.149 326.372 109.925 326.372 92.7318C326.404 90.6227 326.021 88.5775 325.573 86.5642C324.774 84.519 323.752 82.5696 322.346 80.9079C321.514 79.9172 320.364 79.2781 319.437 78.4152C317.999 77.4565 316.305 77.0092 314.676 76.5618C313.813 76.4978 312.95 76.5618 312.151 76.2742C308.732 76.0505 305.249 76.3381 302.053 77.6483C299.72 78.7668 297.547 80.3007 296.013 82.4418C293.489 85.4457 292.658 89.5362 292.722 93.371C292.722 110.436 292.754 127.533 292.722 144.597C285.18 144.661 277.638 144.566 270.096 144.661C269.969 128.204 270.096 111.714 270.032 95.2564C270.064 93.1469 270.001 91.0381 270.16 88.9287C270.576 87.8741 270.288 86.724 270.607 85.701C271.183 81.8023 272.653 78.0954 274.282 74.5482C275.88 71.4484 277.798 68.4764 280.29 66.0157C282.24 64.0344 284.253 61.9573 286.714 60.5831C291.476 57.2599 297.1 55.2467 302.852 54.4478Z" fill="#1a0e0e" fill-rule="evenodd" opacity="1" stroke="#1a0e0e" stroke-linecap="butt" stroke-linejoin="miter" stroke-width="0.0938"/>
<path d="M570.65 54.256C573.43 54.1921 576.179 53.6488 578.959 54.0962C580.461 54.288 581.995 54.256 583.497 54.3199C583.784 57.1002 583.561 59.9123 583.624 62.6926C583.624 66.4315 583.624 70.1385 583.624 73.8774C583.624 74.5804 583.72 75.3155 583.433 75.9865C582.694 75.4436 581.707 75.635 580.876 75.4113C577.486 75.124 574.005 75.2838 570.81 76.5621C567.007 77.8723 563.68 80.6525 561.827 84.2636C561.284 84.9347 561.284 85.8934 560.676 86.5326C559.686 90.1117 559.622 93.8506 559.686 97.5256C559.654 113.248 559.782 128.939 559.622 144.662C552.176 144.566 544.698 144.662 537.22 144.598C537.156 144.534 537.06 144.406 536.996 144.342C536.996 127.245 536.996 110.149 536.996 93.0517C536.901 90.9106 537.38 88.8334 537.348 86.7243C537.859 85.7017 537.731 84.5193 538.051 83.4647C539.649 75.3797 543.899 67.742 550.354 62.5331C551.601 61.127 553.39 60.4559 554.86 59.3374C559.625 56.4291 565.153 55.023 570.65 54.256Z" fill="#1a0e0e" fill-rule="evenodd" opacity="1" stroke="#1a0e0e" stroke-linecap="butt" stroke-linejoin="miter" stroke-width="0.0938"/>
<path d="M239.418 56.1415C246.96 56.2693 254.502 56.1095 262.044 56.2054C262.044 85.4457 262.012 114.654 262.044 143.862C262.044 144.15 262.044 144.725 261.596 144.629C254.214 144.629 246.864 144.629 239.483 144.629C239.29 139.804 239.45 134.947 239.386 130.121C239.418 105.483 239.386 80.812 239.418 56.1415Z" fill="#1a0e0e" fill-rule="evenodd" opacity="1" stroke="#1a0e0e" stroke-linecap="butt" stroke-linejoin="miter" stroke-width="0.0938"/>
<path d="M476.058 115.453C477.976 114.718 479.829 113.759 481.779 113.089C484.591 112.002 487.339 110.692 490.151 109.605C495.967 106.921 501.975 104.684 507.855 102.159C509.258 101.392 510.856 101.041 512.23 100.21C513.796 99.6028 515.365 99.0592 516.899 98.3562C518.241 97.5573 519.775 97.2377 521.149 96.535C522.971 95.7997 524.728 94.9691 526.582 94.298C528.467 93.2431 530.576 92.7322 532.462 91.7092C532.973 91.3577 533.801 91.4536 534.12 90.8464C533.58 90.0797 533.865 89.121 533.58 88.2899C533.162 86.7882 532.746 85.3179 532.398 83.8482C530.96 79.4062 528.883 75.156 526.07 71.449C522.651 66.4957 517.953 62.5012 512.745 59.5611C509.325 57.484 505.49 56.3016 501.656 55.2789C499.291 54.9913 497.022 54.1605 494.625 54.1924C492.452 53.9048 490.215 53.777 488.074 54.1605C484.271 54.2244 480.628 55.1511 477.017 56.2057C470.722 58.4107 464.746 61.7661 459.92 66.3999C458.482 67.742 457.3 69.3079 455.926 70.6821C453.785 73.4303 451.832 76.3384 450.365 79.4701C448.288 84.1678 446.307 89.0891 446.083 94.298C445.38 96.7906 445.604 99.4111 445.572 101.968C445.508 103.597 445.763 105.195 446.083 106.761C445.987 108.423 446.626 109.957 446.85 111.555C447.393 114.942 448.895 118.073 450.269 121.205C454.04 128.939 459.981 135.65 467.43 140.028C472.319 143.032 477.752 145.173 483.44 145.972C488.074 146.707 492.836 146.834 497.501 146.228C499.099 146.355 500.633 145.652 502.231 145.556C509.038 143.958 515.717 141.082 520.862 136.257C522.395 135.042 523.834 133.604 525.048 132.07C527.093 129.993 528.563 127.469 530.033 124.976C531.439 122.323 532.59 119.511 533.421 116.603C532.973 116.411 532.462 116.476 532.014 116.476C524.537 116.508 517.091 116.444 509.613 116.476C508.91 116.476 508.91 117.434 508.462 117.818C507.184 119.671 505.554 121.237 503.829 122.707C501.336 124.497 498.396 125.456 495.488 126.318C494.721 126.414 493.986 126.382 493.283 126.67C491.493 126.798 489.672 126.734 487.85 126.702C485.837 126.319 483.824 125.871 481.874 125.232C478.87 123.698 475.93 121.941 473.662 119.448C473.086 118.745 472.16 118.202 471.968 117.275C472.479 117.051 472.959 116.699 473.534 116.603C474.46 116.444 475.164 115.709 476.058 115.453ZM466.855 99.2829C466.407 98.1645 466.823 96.8542 466.759 95.6718C467.27 94.0417 467.43 92.3164 468.037 90.6863C469.571 87.0752 471.457 83.5283 474.205 80.6839C475.483 79.6293 476.57 78.351 478.04 77.5521C479.126 76.9769 480.181 76.3377 481.299 75.8264C483.376 75.2196 485.39 74.2609 487.563 74.2609C489.544 73.7815 491.589 74.0372 493.603 74.0688C498.875 74.8041 504.18 77.0727 507.6 81.2591C507.951 82.0903 506.769 82.1542 506.289 82.4737C504.212 83.6242 501.879 84.1991 499.802 85.3818C498.875 85.5416 498.076 86.1168 497.182 86.4044C490.567 89.2805 483.824 91.8048 477.273 94.809C473.757 96.1831 470.274 97.6532 466.855 99.2829Z" fill="#1a0e0e" fill-rule="evenodd" opacity="1" stroke="#1a0e0e" stroke-linecap="butt" stroke-linejoin="miter" stroke-width="0.0938"/>
<path d="M443.047 17.0904C436.048 17.0265 429.049 17.0904 422.051 17.0585C421.539 17.1224 420.932 16.8987 420.516 17.2822C420.58 32.3018 420.516 47.3534 420.549 62.373C420.516 62.9163 420.645 63.4595 420.421 63.9708C419.782 63.875 419.462 63.2678 418.983 62.9163C415.755 60.136 412.144 57.7712 408.118 56.3971C405.401 55.3425 402.557 54.7993 399.681 54.288C396.422 54.2241 393.13 54.1282 389.838 54.3199C389.487 54.4158 389.167 54.5117 388.816 54.5436C381.498 55.5662 374.659 58.9856 369.035 63.6832C365.903 66.6232 362.771 69.6911 360.566 73.3981C357.978 77.0731 356.316 81.2913 354.718 85.4457C353.983 88.0662 353.248 90.6546 352.928 93.339C352.321 97.4614 352.577 101.68 352.641 105.834C352.801 106.921 353.152 107.943 353.184 109.03C353.759 112.545 354.782 115.996 356.188 119.288C357.37 122.452 359.287 125.328 361.045 128.204C362.291 129.802 363.506 131.463 365.008 132.869C367.245 135.074 369.449 137.471 372.261 139.005C375.585 141.53 379.516 143.032 383.35 144.502C384.757 144.757 386.067 145.556 387.505 145.588C388.719 145.684 389.838 146.259 391.052 146.195C391.691 146.131 392.267 146.578 392.937 146.515C396.037 146.61 399.169 146.61 402.269 146.515C402.78 146.515 403.291 146.291 403.835 146.259C405.975 146.291 407.957 145.46 410.034 145.172C412.75 144.182 415.659 143.543 418.183 142.073C421.922 140.347 425.309 137.919 428.345 135.17C432.18 131.847 435.28 127.692 437.579 123.154C438.57 121.141 439.688 119.192 440.328 117.019C441.542 114.015 442.085 110.819 442.501 107.655C443.204 104.875 442.98 101.967 443.044 99.0909C443.047 71.7683 443.047 44.4453 443.047 17.0904ZM420.325 103.629C420.133 107.017 418.855 110.244 417.353 113.28C414.828 118.042 410.578 121.685 405.753 123.985C405.017 124.369 404.059 124.337 403.548 125.04C402.653 125.04 401.758 125.072 400.895 125.392C398.147 125.456 395.303 125.711 392.619 124.944C391.468 124.401 390.19 124.178 389.039 123.57C387.601 122.771 385.972 122.228 384.789 121.014C382.552 119.448 380.827 117.307 379.261 115.102C378.014 112.961 376.768 110.756 376.193 108.327C375.554 107.049 375.617 105.611 375.266 104.269C375.17 100.849 374.978 97.3342 375.777 94.0104C376.129 92.9558 376.353 91.8374 376.736 90.7828C377.663 89.0888 378.238 87.2036 379.452 85.6697C380.092 84.3275 381.21 83.3366 382.105 82.1865C384.502 79.4382 387.793 77.6806 391.117 76.3064C392.363 76.0191 393.577 75.38 394.888 75.38C397.54 74.7086 400.288 75.2522 402.909 75.7315C406.36 76.9778 409.78 78.7035 412.464 81.26C413.455 82.1868 414.189 83.3372 415.18 84.264C419.27 89.7599 421.156 96.8223 420.325 103.629Z" fill="#1a0e0e" fill-rule="evenodd" opacity="1" stroke="#1a0e0e" stroke-linecap="butt" stroke-linejoin="miter" stroke-width="0.0938"/>
<path d="M230.431 17.5353C223.433 17.4714 216.434 17.5353 209.436 17.5034C208.925 17.5673 208.318 17.3436 207.902 17.7271C207.966 32.7467 207.902 47.7983 207.934 62.8179C207.902 63.3611 208.03 63.9044 207.807 64.4157C207.167 64.3198 206.848 63.7127 206.368 63.3611C203.141 60.5809 199.53 58.2161 195.503 56.842C192.787 55.7874 189.943 55.2442 187.067 54.7328C183.807 54.6689 180.516 54.5731 177.224 54.7648C176.872 54.8607 176.553 54.9565 176.202 54.9885C168.884 56.0111 162.045 59.4305 156.421 64.1281C153.289 67.0681 150.157 70.136 147.952 73.8429C145.363 77.5179 143.702 81.7362 142.104 85.8906C141.369 88.511 140.634 91.0995 140.314 93.7839C139.707 97.9063 139.962 102.125 140.026 106.279C140.186 107.365 140.538 108.388 140.57 109.475C141.145 112.99 142.167 116.441 143.573 119.733C144.756 122.896 146.673 125.772 148.431 128.649C149.677 130.246 150.891 131.908 152.393 133.314C154.63 135.519 156.835 137.916 159.647 139.45C162.971 141.975 166.901 143.477 170.736 144.946C172.142 145.202 173.452 146.001 174.891 146.033C176.105 146.129 177.223 146.704 178.438 146.64C179.077 146.576 179.652 147.023 180.323 146.959C183.423 147.055 186.555 147.055 189.654 146.959C190.166 146.959 190.677 146.736 191.22 146.704C193.361 146.736 195.342 145.905 197.42 145.617C200.136 144.627 203.044 143.987 205.569 142.518C209.308 140.792 212.695 138.363 215.731 135.615C219.566 132.292 222.665 128.137 224.966 123.599C225.957 121.586 227.075 119.636 227.715 117.463C228.929 114.46 229.472 111.264 229.888 108.1C230.591 105.32 230.367 102.412 230.431 99.5358C230.431 72.2131 230.431 44.8902 230.431 17.5353ZM207.711 104.074C207.519 107.462 206.241 110.689 204.739 113.725C202.214 118.486 197.964 122.129 193.138 124.43C192.403 124.814 191.444 124.782 190.933 125.485C190.039 125.485 189.144 125.517 188.281 125.837C185.532 125.901 182.689 126.156 180.004 125.389C178.854 124.846 177.576 124.623 176.425 124.015C174.987 123.216 173.357 122.673 172.175 121.459C169.938 119.893 168.213 117.752 166.646 115.547C165.4 113.406 164.154 111.201 163.578 108.772C162.939 107.494 163.003 106.056 162.652 104.713C162.556 101.294 162.364 97.7791 163.163 94.4553C163.515 93.4007 163.739 92.2822 164.122 91.2277C165.048 89.5337 165.624 87.6485 166.838 86.1146C167.477 84.7724 168.596 83.7815 169.491 82.6313C171.888 79.8831 175.179 78.1254 178.502 76.7513C179.749 76.464 180.963 75.8249 182.273 75.8249C184.926 75.1535 187.674 75.6971 190.295 76.1764C193.746 77.4227 197.165 79.1484 199.85 81.7049C200.84 82.6316 201.575 83.7821 202.566 84.7088C206.656 90.2047 208.541 97.2672 207.711 104.074Z" fill="#1a0e0e" fill-rule="evenodd" opacity="1" stroke="#1a0e0e" stroke-linecap="butt" stroke-linejoin="miter" stroke-width="0.0938"/>
<path d="M235.727 30.5737C235.727 22.3312 242.682 15.6493 251.261 15.6493C259.84 15.6493 266.794 22.3312 266.794 30.5737C266.794 38.8162 259.84 45.4981 251.261 45.4981C242.682 45.4981 235.727 38.8162 235.727 30.5737Z" fill="#0e1117" fill-rule="evenodd" opacity="1" stroke="#df4723" stroke-linecap="butt" stroke-linejoin="miter" stroke-width="0.0938"/>
</g>
</svg>
