<svg xmlns="http://www.w3.org/2000/svg" xmlns:xlink="http://www.w3.org/1999/xlink" width="75" height="76"><defs><radialGradient id="b" cy="100%" r="106.833%" fx="50%" fy="100%"><stop offset="0%" stop-color="#FF7854"/><stop offset="100%" stop-color="#ff4458"/></radialGradient><rect id="a" width="61" height="61" rx="14"/><mask id="c" width="69" height="69" x="-4" y="-4"><path fill="#fff" d="M-4-4h69v69H-4z"/><use xlink:href="#a"/></mask></defs><g fill="none" fill-rule="evenodd" transform="translate(4 4)"><rect width="60" height="60" x="11" y="12" fill="#DAE2E7" rx="14"/><use xlink:href="#a" fill="url(#b)"/><use xlink:href="#a" stroke="#F9FCFE" stroke-width="8" mask="url(#c)"/><path fill="#FFF" d="M23.274 26.766a.117.117 0 0 1-.131-.04c-1.463-1.968-1.83-5.354-1.92-6.654a.342.342 0 0 0-.516-.266C16.19 22.386 12 28.49 12 34.384 12 44.507 18.914 53 30.813 53c11.15 0 18.813-8.754 18.813-18.616 0-12.906-9.066-21.479-17.14-25.355a.29.29 0 0 0-.413.307c1.04 6.954-.396 14.517-8.799 17.43z"/></g></svg>